<svg xmlns="http://www.w3.org/2000/svg" width="32" height="32" viewBox="0 0 32 32">
  <path fill="#ffffff" d="M25.84 11.92c-.32-.4-.81-.64-1.34-.64h-2.46v-.78c0-.79-.64-1.43-1.43-1.43s-1.43.64-1.43 1.43v.78h-2.64v-1.11c0-.79-.64-1.43-1.43-1.43s-1.43.64-1.43 1.43v1.11H10.6v-1.44c0-.79-.64-1.43-1.43-1.43s-1.43.64-1.43 1.43v1.44H5.7c-.53 0-1.02.25-1.34.64-.32.39-.42.9-.28 1.38l.83 3.37v4.64c0 1.58 1.28 2.86 2.86 2.86h13.08c1.58 0 2.86-1.28 2.86-2.86v-4.64l.83-3.37c.14-.48.04-.99-.28-1.38z" />
</svg>
